<mxfile host="app.diagrams.net" agent="Mozilla/5.0 (Windows NT 10.0; Win64; x64) AppleWebKit/537.36 (KHTML, like Gecko) Chrome/128.0.0.0 Safari/537.36" version="24.7.8">
  <diagram id="C5RBs43oDa-KdzZeNtuy" name="Page-1">
    <mxGraphModel dx="1050" dy="557" grid="1" gridSize="10" guides="1" tooltips="1" connect="1" arrows="1" fold="1" page="1" pageScale="1" pageWidth="827" pageHeight="1169" math="0" shadow="0">
      <root>
        <mxCell id="WIyWlLk6GJQsqaUBKTNV-0" />
        <mxCell id="WIyWlLk6GJQsqaUBKTNV-1" parent="WIyWlLk6GJQsqaUBKTNV-0" />
        <mxCell id="_ZYmG9aNNrQXVXLwhYZU-10" style="edgeStyle=orthogonalEdgeStyle;rounded=0;orthogonalLoop=1;jettySize=auto;html=1;exitX=0.5;exitY=1;exitDx=0;exitDy=0;" edge="1" parent="WIyWlLk6GJQsqaUBKTNV-1" source="_ZYmG9aNNrQXVXLwhYZU-0">
          <mxGeometry relative="1" as="geometry">
            <mxPoint x="410" y="440" as="targetPoint" />
          </mxGeometry>
        </mxCell>
        <mxCell id="_ZYmG9aNNrQXVXLwhYZU-0" value="START" style="rounded=1;whiteSpace=wrap;html=1;" vertex="1" parent="WIyWlLk6GJQsqaUBKTNV-1">
          <mxGeometry x="350" y="340" width="120" height="60" as="geometry" />
        </mxCell>
        <mxCell id="_ZYmG9aNNrQXVXLwhYZU-8" style="edgeStyle=orthogonalEdgeStyle;rounded=0;orthogonalLoop=1;jettySize=auto;html=1;exitX=0.5;exitY=1;exitDx=0;exitDy=0;entryX=0.5;entryY=0;entryDx=0;entryDy=0;" edge="1" parent="WIyWlLk6GJQsqaUBKTNV-1" source="_ZYmG9aNNrQXVXLwhYZU-2">
          <mxGeometry relative="1" as="geometry">
            <mxPoint x="410" y="542" as="targetPoint" />
          </mxGeometry>
        </mxCell>
        <mxCell id="_ZYmG9aNNrQXVXLwhYZU-2" value="&lt;font style=&quot;font-size: 13px;&quot;&gt;int i;&lt;/font&gt;&lt;div&gt;&lt;font style=&quot;font-size: 13px;&quot;&gt;int num;&lt;/font&gt;&lt;/div&gt;" style="shape=parallelogram;perimeter=parallelogramPerimeter;whiteSpace=wrap;html=1;fixedSize=1;" vertex="1" parent="WIyWlLk6GJQsqaUBKTNV-1">
          <mxGeometry x="335" y="440" width="145" height="70" as="geometry" />
        </mxCell>
        <mxCell id="_ZYmG9aNNrQXVXLwhYZU-24" style="edgeStyle=orthogonalEdgeStyle;rounded=0;orthogonalLoop=1;jettySize=auto;html=1;" edge="1" parent="WIyWlLk6GJQsqaUBKTNV-1" source="_ZYmG9aNNrQXVXLwhYZU-11">
          <mxGeometry relative="1" as="geometry">
            <mxPoint x="570" y="830" as="targetPoint" />
          </mxGeometry>
        </mxCell>
        <mxCell id="_ZYmG9aNNrQXVXLwhYZU-11" value="dovur bitdi." style="shape=document;whiteSpace=wrap;html=1;boundedLbl=1;" vertex="1" parent="WIyWlLk6GJQsqaUBKTNV-1">
          <mxGeometry x="510" y="660" width="120" height="80" as="geometry" />
        </mxCell>
        <mxCell id="_ZYmG9aNNrQXVXLwhYZU-14" value="" style="edgeStyle=orthogonalEdgeStyle;rounded=0;orthogonalLoop=1;jettySize=auto;html=1;" edge="1" parent="WIyWlLk6GJQsqaUBKTNV-1" source="_ZYmG9aNNrQXVXLwhYZU-12" target="_ZYmG9aNNrQXVXLwhYZU-13">
          <mxGeometry relative="1" as="geometry" />
        </mxCell>
        <mxCell id="_ZYmG9aNNrQXVXLwhYZU-12" value="i=0;&lt;div&gt;num=50;&lt;/div&gt;" style="rounded=0;whiteSpace=wrap;html=1;" vertex="1" parent="WIyWlLk6GJQsqaUBKTNV-1">
          <mxGeometry x="350" y="542" width="120" height="60" as="geometry" />
        </mxCell>
        <mxCell id="_ZYmG9aNNrQXVXLwhYZU-15" style="edgeStyle=orthogonalEdgeStyle;rounded=0;orthogonalLoop=1;jettySize=auto;html=1;" edge="1" parent="WIyWlLk6GJQsqaUBKTNV-1" source="_ZYmG9aNNrQXVXLwhYZU-13">
          <mxGeometry relative="1" as="geometry">
            <mxPoint x="300" y="690" as="targetPoint" />
          </mxGeometry>
        </mxCell>
        <mxCell id="_ZYmG9aNNrQXVXLwhYZU-19" value="True" style="edgeLabel;html=1;align=center;verticalAlign=middle;resizable=0;points=[];" vertex="1" connectable="0" parent="_ZYmG9aNNrQXVXLwhYZU-15">
          <mxGeometry x="-0.132" relative="1" as="geometry">
            <mxPoint x="1" as="offset" />
          </mxGeometry>
        </mxCell>
        <mxCell id="_ZYmG9aNNrQXVXLwhYZU-16" style="edgeStyle=orthogonalEdgeStyle;rounded=0;orthogonalLoop=1;jettySize=auto;html=1;" edge="1" parent="WIyWlLk6GJQsqaUBKTNV-1" source="_ZYmG9aNNrQXVXLwhYZU-13">
          <mxGeometry relative="1" as="geometry">
            <mxPoint x="510" y="690" as="targetPoint" />
          </mxGeometry>
        </mxCell>
        <mxCell id="_ZYmG9aNNrQXVXLwhYZU-18" value="False" style="edgeLabel;html=1;align=center;verticalAlign=middle;resizable=0;points=[];" vertex="1" connectable="0" parent="_ZYmG9aNNrQXVXLwhYZU-16">
          <mxGeometry x="-0.0612" relative="1" as="geometry">
            <mxPoint as="offset" />
          </mxGeometry>
        </mxCell>
        <mxCell id="_ZYmG9aNNrQXVXLwhYZU-13" value="i &amp;lt;=num" style="rhombus;whiteSpace=wrap;html=1;rounded=0;" vertex="1" parent="WIyWlLk6GJQsqaUBKTNV-1">
          <mxGeometry x="370" y="650" width="80" height="80" as="geometry" />
        </mxCell>
        <mxCell id="_ZYmG9aNNrQXVXLwhYZU-25" style="edgeStyle=orthogonalEdgeStyle;rounded=0;orthogonalLoop=1;jettySize=auto;html=1;entryX=0;entryY=0.5;entryDx=0;entryDy=0;" edge="1" parent="WIyWlLk6GJQsqaUBKTNV-1" source="_ZYmG9aNNrQXVXLwhYZU-23" target="_ZYmG9aNNrQXVXLwhYZU-31">
          <mxGeometry relative="1" as="geometry">
            <mxPoint x="140" y="690" as="targetPoint" />
            <Array as="points">
              <mxPoint x="130" y="690" />
              <mxPoint x="130" y="960" />
            </Array>
          </mxGeometry>
        </mxCell>
        <mxCell id="_ZYmG9aNNrQXVXLwhYZU-35" value="False" style="edgeLabel;html=1;align=center;verticalAlign=middle;resizable=0;points=[];" vertex="1" connectable="0" parent="_ZYmG9aNNrQXVXLwhYZU-25">
          <mxGeometry x="-0.8085" y="-1" relative="1" as="geometry">
            <mxPoint as="offset" />
          </mxGeometry>
        </mxCell>
        <mxCell id="_ZYmG9aNNrQXVXLwhYZU-26" style="edgeStyle=orthogonalEdgeStyle;rounded=0;orthogonalLoop=1;jettySize=auto;html=1;exitX=0.5;exitY=1;exitDx=0;exitDy=0;" edge="1" parent="WIyWlLk6GJQsqaUBKTNV-1" source="_ZYmG9aNNrQXVXLwhYZU-23">
          <mxGeometry relative="1" as="geometry">
            <mxPoint x="260" y="790" as="targetPoint" />
          </mxGeometry>
        </mxCell>
        <mxCell id="_ZYmG9aNNrQXVXLwhYZU-27" value="True" style="edgeLabel;html=1;align=center;verticalAlign=middle;resizable=0;points=[];" vertex="1" connectable="0" parent="_ZYmG9aNNrQXVXLwhYZU-26">
          <mxGeometry x="0.0738" y="1" relative="1" as="geometry">
            <mxPoint as="offset" />
          </mxGeometry>
        </mxCell>
        <mxCell id="_ZYmG9aNNrQXVXLwhYZU-23" value="i%3==0" style="rhombus;whiteSpace=wrap;html=1;" vertex="1" parent="WIyWlLk6GJQsqaUBKTNV-1">
          <mxGeometry x="220" y="650" width="80" height="80" as="geometry" />
        </mxCell>
        <mxCell id="_ZYmG9aNNrQXVXLwhYZU-30" style="edgeStyle=orthogonalEdgeStyle;rounded=0;orthogonalLoop=1;jettySize=auto;html=1;" edge="1" parent="WIyWlLk6GJQsqaUBKTNV-1" source="_ZYmG9aNNrQXVXLwhYZU-29">
          <mxGeometry relative="1" as="geometry">
            <mxPoint x="270" y="930" as="targetPoint" />
          </mxGeometry>
        </mxCell>
        <mxCell id="_ZYmG9aNNrQXVXLwhYZU-29" value="Console.WriteLine(i);" style="shape=document;whiteSpace=wrap;html=1;boundedLbl=1;" vertex="1" parent="WIyWlLk6GJQsqaUBKTNV-1">
          <mxGeometry x="210" y="790" width="120" height="80" as="geometry" />
        </mxCell>
        <mxCell id="_ZYmG9aNNrQXVXLwhYZU-32" style="edgeStyle=orthogonalEdgeStyle;rounded=0;orthogonalLoop=1;jettySize=auto;html=1;entryX=0.5;entryY=1;entryDx=0;entryDy=0;" edge="1" parent="WIyWlLk6GJQsqaUBKTNV-1" source="_ZYmG9aNNrQXVXLwhYZU-31" target="_ZYmG9aNNrQXVXLwhYZU-13">
          <mxGeometry relative="1" as="geometry" />
        </mxCell>
        <mxCell id="_ZYmG9aNNrQXVXLwhYZU-31" value="i++;" style="rounded=0;whiteSpace=wrap;html=1;" vertex="1" parent="WIyWlLk6GJQsqaUBKTNV-1">
          <mxGeometry x="215" y="930" width="120" height="60" as="geometry" />
        </mxCell>
        <mxCell id="_ZYmG9aNNrQXVXLwhYZU-34" value="END" style="rounded=1;whiteSpace=wrap;html=1;" vertex="1" parent="WIyWlLk6GJQsqaUBKTNV-1">
          <mxGeometry x="510" y="830" width="120" height="60" as="geometry" />
        </mxCell>
      </root>
    </mxGraphModel>
  </diagram>
</mxfile>
